<svg
    xmlns="http://www.w3.org/2000/svg"
    viewBox="0 0 95 12"
    id="vector">
    <path
        id="path"
        d="M 4.678 8.842 C 4.395 8.983 3.83 9.124 3.105 9.124 C 1.426 9.124 0.163 8.064 0.163 6.111 C 0.163 4.247 1.427 2.984 3.273 2.984 C 4.015 2.984 4.483 3.143 4.687 3.249 L 4.501 3.876 C 4.209 3.735 3.794 3.629 3.3 3.629 C 1.904 3.629 0.976 4.521 0.976 6.085 C 0.976 7.543 1.815 8.48 3.264 8.48 C 3.732 8.48 4.209 8.383 4.519 8.233 L 4.678 8.842 Z"
        fill="#ffffff"/>
    <path
        id="path_1"
        d="M 9.483 6.862 C 9.483 8.444 8.387 9.133 7.354 9.133 C 6.197 9.133 5.305 8.284 5.305 6.933 C 5.305 5.501 6.241 4.662 7.425 4.662 C 8.652 4.663 9.483 5.555 9.483 6.862 Z M 6.09 6.907 C 6.09 7.844 6.629 8.55 7.389 8.55 C 8.131 8.55 8.687 7.853 8.687 6.89 C 8.687 6.165 8.325 5.246 7.406 5.246 C 6.487 5.246 6.09 6.094 6.09 6.907 Z"
        fill="#ffffff"/>
    <path
        id="path_2"
        d="M 10.462 6.156 C 10.462 5.608 10.444 5.166 10.426 4.76 L 11.124 4.76 L 11.159 5.493 L 11.177 5.493 C 11.495 4.972 11.999 4.663 12.697 4.663 C 13.731 4.663 14.508 5.538 14.508 6.836 C 14.508 8.373 13.571 9.134 12.564 9.134 C 11.999 9.134 11.504 8.886 11.248 8.462 L 11.23 8.462 L 11.23 10.785 L 10.461 10.785 L 10.461 6.156 Z M 11.231 7.296 C 11.231 7.41 11.249 7.517 11.266 7.613 C 11.408 8.152 11.876 8.523 12.433 8.523 C 13.254 8.523 13.732 7.852 13.732 6.872 C 13.732 6.015 13.281 5.281 12.46 5.281 C 11.93 5.281 11.435 5.661 11.285 6.244 C 11.258 6.342 11.232 6.456 11.232 6.562 L 11.232 7.296 Z"
        fill="#ffffff"/>
    <path
        id="path_3"
        d="M 15.771 4.76 L 16.708 7.287 C 16.805 7.569 16.911 7.905 16.982 8.161 L 17 8.161 C 17.08 7.905 17.168 7.578 17.274 7.269 L 18.122 4.76 L 18.943 4.76 L 17.777 7.807 C 17.22 9.274 16.84 10.025 16.311 10.485 C 15.931 10.82 15.551 10.953 15.356 10.988 L 15.162 10.335 C 15.356 10.273 15.613 10.149 15.843 9.955 C 16.055 9.787 16.32 9.486 16.497 9.089 C 16.532 9.01 16.559 8.948 16.559 8.903 C 16.559 8.859 16.541 8.798 16.506 8.7 L 14.924 4.76 L 15.771 4.76 Z"
        fill="#ffffff"/>
    <path
        id="path_4"
        d="M 19.648 6.094 C 19.648 5.591 19.639 5.158 19.612 4.761 L 20.293 4.761 L 20.32 5.6 L 20.355 5.6 C 20.549 5.025 21.018 4.663 21.539 4.663 C 21.627 4.663 21.689 4.672 21.76 4.689 L 21.76 5.422 C 21.68 5.404 21.601 5.395 21.495 5.395 C 20.948 5.395 20.559 5.811 20.453 6.394 C 20.435 6.5 20.418 6.623 20.418 6.756 L 20.418 9.035 L 19.649 9.035 L 19.649 6.094 Z"
        fill="#ffffff"/>
    <path
        id="path_5"
        d="M 23.402 3.559 C 23.411 3.824 23.216 4.036 22.907 4.036 C 22.633 4.036 22.439 3.824 22.439 3.559 C 22.439 3.285 22.642 3.073 22.925 3.073 C 23.217 3.073 23.402 3.285 23.402 3.559 Z M 22.537 9.036 L 22.537 4.76 L 23.314 4.76 L 23.314 9.036 L 22.537 9.036 Z"
        fill="#ffffff"/>
    <path
        id="path_6"
        d="M 28.288 4.76 C 28.27 5.069 28.253 5.414 28.253 5.935 L 28.253 8.418 C 28.253 9.398 28.058 9.999 27.643 10.37 C 27.228 10.759 26.627 10.883 26.088 10.883 C 25.575 10.883 25.01 10.759 24.665 10.529 L 24.86 9.937 C 25.143 10.114 25.584 10.273 26.114 10.273 C 26.909 10.273 27.492 9.857 27.492 8.78 L 27.492 8.303 L 27.474 8.303 C 27.236 8.7 26.776 9.019 26.114 9.019 C 25.054 9.019 24.294 8.118 24.294 6.934 C 24.294 5.485 25.239 4.663 26.22 4.663 C 26.962 4.663 27.368 5.052 27.554 5.405 L 27.572 5.405 L 27.608 4.76 L 28.288 4.76 Z M 27.483 6.447 C 27.483 6.315 27.474 6.2 27.439 6.093 C 27.297 5.643 26.918 5.272 26.352 5.272 C 25.61 5.272 25.08 5.899 25.08 6.889 C 25.08 7.728 25.504 8.426 26.343 8.426 C 26.82 8.426 27.253 8.125 27.421 7.631 C 27.465 7.498 27.483 7.348 27.483 7.215 L 27.483 6.447 Z"
        fill="#ffffff"/>
    <path
        id="path_7"
        d="M 29.541 2.763 L 30.318 2.763 L 30.318 5.431 L 30.336 5.431 C 30.46 5.21 30.654 5.015 30.893 4.883 C 31.123 4.751 31.397 4.662 31.688 4.662 C 32.262 4.662 33.181 5.015 33.181 6.491 L 33.181 9.035 L 32.404 9.035 L 32.404 6.58 C 32.404 5.891 32.148 5.308 31.415 5.308 C 30.911 5.308 30.514 5.662 30.373 6.085 C 30.329 6.191 30.32 6.307 30.32 6.456 L 30.32 9.036 L 29.543 9.036 L 29.543 2.763 Z"
        fill="#ffffff"/>
    <path
        id="path_8"
        d="M 35.379 3.532 L 35.379 4.76 L 36.492 4.76 L 36.492 5.352 L 35.379 5.352 L 35.379 7.658 C 35.379 8.187 35.529 8.488 35.962 8.488 C 36.165 8.488 36.316 8.462 36.413 8.435 L 36.448 9.018 C 36.298 9.08 36.059 9.123 35.759 9.123 C 35.397 9.123 35.105 9.009 34.92 8.797 C 34.699 8.568 34.62 8.187 34.62 7.684 L 34.62 5.352 L 33.957 5.352 L 33.957 4.76 L 34.62 4.76 L 34.62 3.735 L 35.379 3.532 Z"
        fill="#ffffff"/>
    <path
        id="path_9"
        d="M 44.257 6.032 C 44.257 7.552 43.091 8.771 41.598 8.771 C 40.096 8.771 38.912 7.551 38.912 6.032 C 38.912 4.53 40.096 3.311 41.598 3.311 C 43.091 3.311 44.257 4.53 44.257 6.032 Z M 39.354 6.059 C 39.354 7.375 40.326 8.41 41.598 8.41 C 42.844 8.41 43.815 7.376 43.815 6.033 C 43.815 4.717 42.843 3.674 41.598 3.674 C 40.326 3.673 39.354 4.716 39.354 6.059 Z M 42.676 5.025 C 42.561 4.963 42.235 4.822 41.819 4.822 C 40.988 4.822 40.582 5.352 40.582 6.059 C 40.582 6.748 41.015 7.305 41.828 7.305 C 42.182 7.305 42.517 7.207 42.721 7.076 L 42.827 7.411 C 42.518 7.614 42.111 7.685 41.74 7.685 C 40.716 7.685 40.123 6.978 40.123 6.085 C 40.123 5.078 40.918 4.442 41.811 4.442 C 42.27 4.442 42.668 4.575 42.783 4.681 L 42.676 5.025 Z"
        fill="#ffffff"/>
    <path
        id="path_10"
        d="M 51.279 8.842 C 50.996 8.984 50.43 9.124 49.706 9.124 C 48.027 9.124 46.764 8.064 46.764 6.111 C 46.764 4.247 48.027 2.984 49.874 2.984 C 50.616 2.984 51.085 3.143 51.288 3.249 L 51.102 3.876 C 50.81 3.735 50.395 3.629 49.9 3.629 C 48.504 3.629 47.577 4.521 47.577 6.085 C 47.577 7.543 48.416 8.48 49.865 8.48 C 50.334 8.48 50.81 8.383 51.12 8.233 L 51.279 8.842 Z"
        fill="#ffffff"/>
    <path
        id="path_11"
        d="M 52.214 2.763 L 52.992 2.763 L 52.992 5.431 L 53.01 5.431 C 53.133 5.21 53.327 5.015 53.567 4.883 C 53.796 4.751 54.07 4.662 54.362 4.662 C 54.936 4.662 55.855 5.015 55.855 6.491 L 55.855 9.035 L 55.078 9.035 L 55.078 6.58 C 55.078 5.891 54.821 5.308 54.088 5.308 C 53.585 5.308 53.188 5.662 53.046 6.085 C 53.002 6.191 52.993 6.307 52.993 6.456 L 52.993 9.036 L 52.215 9.036 L 52.215 2.763 Z"
        fill="#ffffff"/>
    <path
        id="path_12"
        d="M 59.484 9.036 L 59.422 8.497 L 59.396 8.497 C 59.157 8.833 58.698 9.134 58.088 9.134 C 57.222 9.134 56.78 8.524 56.78 7.905 C 56.78 6.872 57.699 6.306 59.35 6.315 L 59.35 6.227 C 59.35 5.873 59.253 5.238 58.378 5.238 C 57.981 5.238 57.565 5.362 57.265 5.556 L 57.09 5.043 C 57.444 4.813 57.956 4.663 58.495 4.663 C 59.803 4.663 60.12 5.555 60.12 6.412 L 60.12 8.012 C 60.12 8.383 60.138 8.744 60.191 9.036 L 59.484 9.036 Z M 59.369 6.854 C 58.521 6.836 57.558 6.987 57.558 7.818 C 57.558 8.321 57.894 8.559 58.291 8.559 C 58.848 8.559 59.2 8.206 59.324 7.844 C 59.35 7.764 59.368 7.676 59.368 7.596 L 59.368 6.854 Z"
        fill="#ffffff"/>
    <path
        id="path_13"
        d="M 61.373 6.094 C 61.373 5.591 61.364 5.158 61.338 4.761 L 62.019 4.761 L 62.045 5.6 L 62.08 5.6 C 62.274 5.025 62.743 4.663 63.264 4.663 C 63.353 4.663 63.414 4.672 63.486 4.689 L 63.486 5.422 C 63.406 5.404 63.327 5.395 63.22 5.395 C 62.672 5.395 62.283 5.811 62.178 6.394 C 62.16 6.5 62.143 6.623 62.143 6.756 L 62.143 9.035 L 61.373 9.035 L 61.373 6.094 Z"
        fill="#ffffff"/>
    <path
        id="path_14"
        d="M 67.946 4.76 C 67.928 5.069 67.911 5.414 67.911 5.935 L 67.911 8.418 C 67.911 9.398 67.717 9.999 67.302 10.37 C 66.886 10.759 66.285 10.883 65.746 10.883 C 65.234 10.883 64.669 10.759 64.324 10.529 L 64.518 9.937 C 64.8 10.114 65.243 10.273 65.772 10.273 C 66.568 10.273 67.151 9.857 67.151 8.78 L 67.151 8.303 L 67.133 8.303 C 66.894 8.7 66.435 9.019 65.772 9.019 C 64.712 9.019 63.953 8.118 63.953 6.934 C 63.953 5.485 64.898 4.663 65.879 4.663 C 66.621 4.663 67.027 5.052 67.213 5.405 L 67.231 5.405 L 67.266 4.76 L 67.946 4.76 Z M 67.143 6.447 C 67.143 6.315 67.134 6.2 67.098 6.093 C 66.957 5.643 66.577 5.272 66.012 5.272 C 65.27 5.272 64.74 5.899 64.74 6.889 C 64.74 7.728 65.164 8.426 66.004 8.426 C 66.481 8.426 66.913 8.125 67.081 7.631 C 67.126 7.498 67.144 7.348 67.144 7.215 L 67.144 6.447 Z"
        fill="#ffffff"/>
    <path
        id="path_15"
        d="M 73.069 6.862 C 73.069 8.444 71.973 9.133 70.94 9.133 C 69.783 9.133 68.89 8.284 68.89 6.933 C 68.89 5.501 69.827 4.662 71.01 4.662 C 72.239 4.663 73.069 5.555 73.069 6.862 Z M 69.677 6.907 C 69.677 7.844 70.216 8.55 70.976 8.55 C 71.718 8.55 72.275 7.853 72.275 6.89 C 72.275 6.165 71.913 5.246 70.994 5.246 C 70.075 5.246 69.677 6.094 69.677 6.907 Z"
        fill="#ffffff"/>
    <path
        id="path_16"
        d="M 77.918 6.862 C 77.918 8.444 76.822 9.133 75.789 9.133 C 74.632 9.133 73.739 8.284 73.739 6.933 C 73.739 5.501 74.676 4.662 75.859 4.662 C 77.088 4.663 77.918 5.555 77.918 6.862 Z M 74.525 6.907 C 74.525 7.844 75.064 8.55 75.824 8.55 C 76.566 8.55 77.123 7.853 77.123 6.89 C 77.123 6.165 76.761 5.246 75.842 5.246 C 74.923 5.246 74.525 6.094 74.525 6.907 Z"
        fill="#ffffff"/>
    <path
        id="path_17"
        d="M 78.897 5.917 C 78.897 5.475 78.888 5.113 78.862 4.76 L 79.551 4.76 L 79.595 5.467 L 79.613 5.467 C 79.825 5.061 80.32 4.663 81.027 4.663 C 81.619 4.663 82.538 5.016 82.538 6.482 L 82.538 9.036 L 81.761 9.036 L 81.761 6.571 C 81.761 5.882 81.504 5.307 80.771 5.307 C 80.259 5.307 79.862 5.669 79.729 6.102 C 79.694 6.2 79.676 6.332 79.676 6.464 L 79.676 9.035 L 78.898 9.035 L 78.898 5.917 Z"
        fill="#ffffff"/>
    <path
        id="path_18"
        d="M 89.86 8.842 C 89.577 8.984 89.011 9.124 88.287 9.124 C 86.608 9.124 85.346 8.064 85.346 6.111 C 85.346 4.247 86.609 2.984 88.455 2.984 C 89.197 2.984 89.666 3.143 89.869 3.249 L 89.683 3.876 C 89.391 3.735 88.976 3.629 88.481 3.629 C 87.085 3.629 86.158 4.521 86.158 6.085 C 86.158 7.543 86.997 8.48 88.446 8.48 C 88.915 8.48 89.391 8.383 89.701 8.233 L 89.86 8.842 Z"
        fill="#ffffff"/>
    <path
        id="path_19"
        d="M 94.665 6.862 C 94.665 8.444 93.569 9.133 92.536 9.133 C 91.379 9.133 90.486 8.284 90.486 6.933 C 90.486 5.501 91.423 4.662 92.606 4.662 C 93.835 4.663 94.665 5.555 94.665 6.862 Z M 91.272 6.907 C 91.272 7.844 91.811 8.55 92.571 8.55 C 93.313 8.55 93.87 7.853 93.87 6.89 C 93.87 6.165 93.508 5.246 92.589 5.246 C 91.67 5.246 91.272 6.094 91.272 6.907 Z"
        fill="#ffffff"/>
</svg>
