<svg
    xmlns="http://www.w3.org/2000/svg"
    viewBox="0 0 95 28"
    id="vector">
    <path
        id="path"
        d="M 83.656 24.851 C 84.101 24.34 84.495 23.805 84.816 23.254 C 85.186 22.637 85.466 21.994 85.664 21.345 C 85.804 20.859 85.903 20.373 85.935 19.905 L 83.656 19.905 L 78.629 19.905 L 76.627 19.905 L 75.88 19.905 L 75.871 19.905 C 75.279 19.905 74.726 19.831 74.142 19.691 C 74.002 19.658 73.854 19.618 73.698 19.567 C 72.982 19.352 72.283 19.041 71.599 18.637 C 69.978 17.683 68.496 16.218 67.37 14.398 L 67.37 22.365 C 67.37 25.427 69.881 27.936 72.94 27.928 L 74.142 27.928 L 77.821 27.936 C 78.126 27.936 78.389 27.928 78.629 27.911 C 79.559 27.862 80.133 27.665 81.138 27.015 C 82.101 26.39 82.948 25.648 83.656 24.851 Z"
        fill="#b61918"/>
    <path
        id="path_1"
        d="M 72.061 17.855 C 72.678 18.216 73.321 18.505 73.962 18.694 C 74.019 18.718 74.085 18.735 74.143 18.752 C 74.571 18.867 74.99 18.941 75.418 18.975 L 75.418 9.543 C 75.418 8.49 75.427 7.815 75.748 6.728 C 75.961 6.012 76.273 5.306 76.678 4.623 C 77.189 3.757 77.847 2.927 78.629 2.17 C 79.304 1.52 80.077 0.92 80.916 0.401 L 78.629 0.401 L 74.143 0.401 L 72.94 0.401 C 69.88 0.401 67.37 2.911 67.37 5.972 L 67.37 10.721 C 67.37 12.144 67.394 12.729 68.169 13.963 C 69.205 15.633 70.571 16.975 72.061 17.855 Z"
        fill="#b61918"/>
    <path
        id="path_2"
        d="M 89.334 0.4 L 84.644 0.4 C 84.291 0.4 83.961 0.408 83.657 0.433 C 82.892 0.491 82.217 0.663 81.443 1.141 C 80.364 1.8 79.41 2.606 78.629 3.486 C 78.184 3.995 77.788 4.531 77.459 5.091 C 77.097 5.707 76.817 6.341 76.619 6.991 C 76.48 7.476 76.382 7.962 76.348 8.439 L 78.628 8.439 L 83.655 8.439 L 85.588 8.439 C 86.734 8.439 87.425 8.431 88.576 8.776 C 89.292 8.99 90.001 9.303 90.683 9.707 C 92.305 10.662 93.778 12.118 94.905 13.936 L 94.905 5.971 C 94.906 2.902 92.396 0.4 89.334 0.4 Z"
        fill="#b61918"/>
    <path
        id="path_3"
        d="M 90.224 10.49 C 89.607 10.127 88.965 9.84 88.323 9.65 C 87.838 9.502 87.353 9.412 86.867 9.371 L 86.867 18.579 C 86.867 19.756 86.89 20.423 86.537 21.607 C 86.324 22.324 86.011 23.03 85.606 23.713 C 85.088 24.578 84.439 25.409 83.657 26.158 C 82.982 26.816 82.217 27.408 81.378 27.935 L 83.657 27.935 L 89.335 27.935 C 92.398 27.927 94.907 25.425 94.907 22.364 L 94.907 19.871 L 94.907 17.796 C 94.907 16.109 94.824 15.427 93.853 13.986 C 92.849 12.498 91.589 11.296 90.224 10.49 Z"
        fill="#b61918"/>
    <path
        id="path_4"
        d="M 30.545 6.751 L 44.509 6.751 L 44.509 8.45 L 30.545 8.45 Z"
        fill="#ffffff"/>
    <path
        id="path_5"
        d="M 30.545 4.084 L 44.509 4.084 L 44.509 5.764 L 30.545 5.764 Z"
        fill="#ffffff"/>
    <path
        id="path_6"
        d="M 62.695 17.451 C 62.695 18.013 62.321 18.534 61.593 19.019 C 60.864 19.486 59.987 19.729 58.942 19.729 L 49.813 19.729 L 49.813 18.047 L 58.811 18.047 C 59.447 18.047 59.763 17.861 59.763 17.488 L 59.763 11.944 C 59.763 11.141 52.894 11.141 52.894 11.944 L 52.894 16.909 L 49.962 16.909 L 49.962 11.776 C 49.962 11.159 50.354 10.637 51.138 10.188 C 52.782 9.237 59.783 9.274 61.462 10.169 C 62.283 10.599 62.694 11.103 62.694 11.7 L 62.694 17.451 Z"
        fill="#ffffff"/>
    <path
        id="path_7"
        d="M 49.888 19.729 L 49.683 19.729 C 48.6 19.729 47.685 19.503 46.957 19.038 C 46.229 18.591 45.856 18.066 45.856 17.508 L 45.856 4.084 L 48.768 4.084 L 48.768 17.489 C 48.768 17.862 49.086 18.048 49.683 18.048 L 49.888 18.048 L 49.888 19.729 Z"
        fill="#ffffff"/>
    <path
        id="path_8"
        d="M 44.64 20.086 C 44.64 21.412 43.8 22.532 42.156 23.428 L 39.954 22.326 C 41.13 21.692 41.709 20.833 41.709 19.731 L 41.709 9.613 L 44.64 9.613 L 44.64 20.086 Z"
        fill="#ffffff"/>
    <path
        id="path_9"
        d="M 40.178 14.747 C 40.178 16.128 39.357 17.305 37.733 18.313 C 36.09 19.303 34.093 19.806 31.74 19.806 L 28.809 19.806 L 28.809 18.108 L 31.74 18.108 C 33.233 18.108 34.522 17.771 35.641 17.118 C 36.781 16.445 37.34 15.662 37.34 14.747 C 37.34 13.851 36.78 13.067 35.679 12.394 C 34.596 11.723 33.271 11.386 31.74 11.386 L 30.545 11.386 L 30.545 9.688 L 31.74 9.688 C 34.035 9.688 36.015 10.192 37.677 11.181 C 39.356 12.17 40.178 13.365 40.178 14.747 Z"
        fill="#ffffff"/>
    <path
        id="path_10"
        d="M 23.843 11.928 C 23.526 12.058 23.227 12.208 22.928 12.394 C 21.715 13.085 21.117 13.869 21.117 14.747 C 21.117 15.662 21.639 16.464 22.685 17.118 C 23.039 17.343 23.432 17.529 23.843 17.679 L 23.843 19.527 C 22.723 19.286 21.696 18.874 20.744 18.314 C 19.082 17.325 18.242 16.129 18.242 14.748 C 18.242 13.367 19.064 12.172 20.725 11.182 C 21.658 10.622 22.704 10.231 23.843 9.97 L 23.843 11.928 L 23.843 11.928 Z M 26.568 18.107 C 25.541 18.107 24.645 17.957 23.842 17.677 L 23.842 19.525 C 24.7 19.713 25.597 19.805 26.568 19.805 C 26.568 20.832 25.97 21.673 24.813 22.307 L 26.998 23.446 C 28.659 22.513 29.481 21.374 29.481 20.029 L 29.481 19.805 L 30.788 19.805 L 30.788 18.107 L 29.481 18.107 L 29.481 9.687 L 26.681 9.687 C 25.672 9.687 24.72 9.78 23.843 9.968 L 23.843 11.927 C 24.72 11.554 25.616 11.385 26.569 11.385 L 26.569 18.107 Z"
        fill="#ffffff"/>
    <path
        id="path_11"
        d="M 17.026 17.285 C 17.026 18.723 16.111 19.956 14.3 20.982 C 12.638 21.878 10.696 22.326 8.513 22.326 C 6.254 22.326 4.256 21.821 2.557 20.814 C 0.858 19.806 0 18.593 0 17.192 L 0 9.669 L 2.932 9.669 L 2.932 17.192 C 2.932 18.088 3.473 18.872 4.555 19.545 C 5.657 20.235 6.964 20.572 8.513 20.572 C 10.156 20.572 11.5 20.235 12.545 19.582 C 13.591 18.93 14.113 18.051 14.113 16.931 L 14.113 9.669 L 17.026 9.669 L 17.026 17.285 Z"
        fill="#ffffff"/>
    <path
        id="path_12"
        d="M 55.3 24.138 C 56.272 24.138 57.074 23.353 57.074 22.365 C 57.074 21.394 56.271 20.592 55.3 20.592 C 54.33 20.592 53.527 21.395 53.527 22.365 C 53.526 23.353 54.33 24.138 55.3 24.138 Z"
        fill="#ffffff"/>
    <path
        id="path_13"
        d="M 51.809 24.138 C 52.781 24.138 53.582 23.353 53.582 22.365 C 53.582 21.394 52.78 20.592 51.809 20.592 C 50.838 20.592 50.037 21.395 50.037 22.365 C 50.036 23.353 50.838 24.138 51.809 24.138 Z"
        fill="#ffffff"/>
    <path
        id="path_14"
        d="M 58.791 24.138 C 59.762 24.138 60.564 23.353 60.564 22.365 C 60.564 21.394 59.761 20.592 58.791 20.592 C 57.821 20.592 57.018 21.395 57.018 22.365 C 57.018 23.353 57.82 24.138 58.791 24.138 Z"
        fill="#ffffff"/>
    <path
        id="path_15"
        d="M 8.513 16.203 C 9.502 16.203 10.286 15.4 10.286 14.43 C 10.286 13.459 9.502 12.656 8.513 12.656 C 7.542 12.656 6.739 13.459 6.739 14.43 C 6.739 15.4 7.542 16.203 8.513 16.203 Z"
        fill="#ffffff"/>
</svg>
