<svg
    xmlns="http://www.w3.org/2000/svg"
    viewBox="0 0 240 80"
    id="vector">
    <path
        id="path"
        d="M 221.1 46.4 L 221 46.5 L 220.8 46.7 L 220.8 46.7 L 217 50.5 C 212 54.9 206.9 54.4 202.9 50.4 C 202.6 50.1 194.7 42.2 193.7 41.2 C 193.4 41.5 192.9 42 192.6 42.3 C 190.7 44.2 188.7 49.3 192.6 53.7 L 197.6 58.7 C 198.1 59.2 198.5 59.6 198.9 60 L 199.3 60.4 L 199.3 60.4 L 204.9 66 L 209.9 70.9 C 214.6 75 219.8 72.7 221.6 70.7 L 226.4 65.8 L 230.7 61.5 C 231.2 60.9 230.9 61.3 231.3 60.9 C 231.8 60.4 232.3 59.9 232.8 59.4 C 234.7 57.5 236.7 52.5 232.7 48 L 227.8 43 C 227.3 42.5 226.9 42.1 226.5 41.7 L 226.1 41.3 C 224.5 43 221.4 46.1 221.1 46.4 L 221.1 46.4 Z"
        fill="#fbc820"/>
    <path
        id="path_1"
        d="M 182.2 33.5 L 182.3 33.4 L 182.5 33.2 L 182.5 33.2 L 186.3 29.4 C 191.3 25 196.4 25.5 200.4 29.5 C 200.7 29.8 208.6 37.7 209.6 38.7 C 209.9 38.4 210.4 37.9 210.7 37.6 C 212.6 35.6 214.6 30.6 210.7 26.1 L 205.7 21.1 C 205.2 20.6 204.8 20.2 204.4 19.8 L 204 19.4 L 204 19.4 L 198.4 13.8 L 193.4 8.9 C 188.7 4.8 183.5 7.1 181.7 9.1 L 177 14 L 172.7 18.3 C 172.2 18.8 172.5 18.5 172.1 18.9 C 171.6 19.4 171.1 19.9 170.6 20.4 C 168.7 22.4 166.7 27.4 170.6 31.9 L 175.5 36.9 C 176 37.4 176.4 37.8 176.8 38.2 L 177.2 38.6 C 178.8 37 181.8 33.9 182.2 33.5 L 182.2 33.5 Z"
        fill="#fbc820"/>
    <path
        id="path_2"
        d="M 208.1 20.5 L 208.2 20.6 L 208.4 20.8 L 208.4 20.8 L 212.2 24.6 C 216.6 29.6 216.1 34.7 212.1 38.7 C 211.8 39 203.9 46.9 202.9 47.9 C 203.2 48.2 203.7 48.7 204 49 C 205.9 50.9 210.9 52.9 215.4 49 L 220.4 44 C 220.9 43.5 221.3 43.1 221.7 42.7 L 222.1 42.3 L 222.1 42.3 L 227.7 36.7 L 232.6 31.7 C 236.7 27 234.4 21.7 232.4 20 L 227.5 15.2 L 223.2 10.9 C 222.6 10.4 223 10.7 222.6 10.3 C 222.1 9.8 221.6 9.3 221.1 8.8 C 219.2 6.9 214.2 4.9 209.7 8.9 L 204.7 13.8 C 204.2 14.3 203.8 14.7 203.4 15.1 L 203 15.5 C 204.7 17.1 207.7 20.2 208.1 20.5 L 208.1 20.5 Z"
        fill="#5069b0"/>
    <path
        id="path_3"
        d="M 195.2 59.4 L 195.1 59.3 L 194.9 59.1 L 194.9 59.1 L 191.1 55.3 C 186.7 50.3 187.2 45.2 191.2 41.2 C 191.5 40.9 199.4 33 200.4 32 C 200.1 31.7 199.6 31.2 199.3 30.9 C 197.3 29 192.3 27 187.8 30.9 L 182.8 35.9 C 182.3 36.4 181.9 36.8 181.5 37.2 L 181.1 37.6 L 181.1 37.6 L 175.5 43.2 L 170.6 48.2 C 166.5 52.9 168.8 58.1 170.8 59.9 L 175.6 64.7 L 180 69 C 180.5 69.5 180.2 69.2 180.6 69.6 C 181.1 70.1 181.6 70.6 182.1 71.1 C 184.1 73 189.1 75 193.6 71 L 198.6 66.1 C 199.1 65.6 199.5 65.2 199.9 64.8 L 200.3 64.4 C 198.7 62.9 195.6 59.8 195.2 59.4 L 195.2 59.4 Z"
        fill="#5069b0"/>
    <path
        id="path_4"
        d="M 156.1 33.8 C 155.7 32.4 155.1 31.2 154.4 30 C 153.6 28.9 152.7 28 151.6 27.2 C 150.5 26.5 149.3 26.1 147.9 26.1 L 129.2 26.1 C 128.6 26.1 128 26.4 127.6 26.9 C 127.2 27.4 126.9 28 126.9 28.7 C 126.9 29.4 127.1 30 127.6 30.5 C 128 31 128.6 31.3 129.2 31.3 L 146.9 31.3 C 148 31.3 148.9 31.5 149.6 32 C 150.3 32.4 150.8 33 151.2 33.6 C 151.6 34.2 151.9 35 152 35.7 C 152.1 36.5 152.2 37.2 152.2 37.8 C 152.2 38.4 152.1 39.1 152 39.9 C 151.9 40.7 151.6 41.4 151.2 42 C 150.8 42.6 150.3 43.2 149.6 43.6 C 148.9 44 148 44.3 146.9 44.3 L 129.2 44.3 C 128.6 44.3 128 44.6 127.6 45.1 C 127.2 45.6 126.9 46.2 126.9 46.9 C 126.9 47.6 127.1 48.2 127.6 48.7 C 128 49.2 128.6 49.4 129.2 49.4 L 148.4 49.4 C 149.7 49.4 150.9 49 151.9 48.3 C 152.9 47.6 153.8 46.7 154.5 45.5 C 155.2 44.4 155.8 43.1 156.2 41.7 C 156.6 40.3 156.8 38.9 156.8 37.6 C 156.7 36.6 156.5 35.2 156.1 33.8 Z M 32.6 30.2 C 31.9 29.1 31 28.2 30 27.4 C 29 26.7 27.8 26.3 26.5 26.2 L 13.8 26.2 C 12.4 26.2 11.2 26.6 10.1 27.3 C 9 28 8.1 28.9 7.3 30 C 6.5 31.1 6 32.4 5.6 33.8 C 5.2 35.2 5 36.5 5 37.9 C 5 39.2 5.2 40.6 5.6 41.9 C 6 43.3 6.5 44.5 7.3 45.6 C 8 46.7 8.9 47.6 9.9 48.4 C 10.9 49.1 12.1 49.5 13.4 49.6 L 26 49.6 C 27.4 49.6 28.6 49.2 29.7 48.5 C 30.8 47.8 31.7 46.9 32.5 45.7 C 33.3 44.6 33.8 43.3 34.2 41.9 C 34.6 40.5 34.8 39.2 34.8 37.8 C 34.8 36.5 34.6 35.1 34.2 33.8 C 33.8 32.5 33.3 31.3 32.6 30.2 Z M 30.1 39.7 C 30 40.5 29.7 41.2 29.3 41.8 C 28.9 42.4 28.4 43 27.7 43.4 C 27 43.8 26.1 44.1 25 44.1 L 14.8 44.1 C 13.7 44.1 12.8 43.9 12.1 43.4 C 11.4 43 10.9 42.4 10.5 41.8 C 10.1 41.2 9.8 40.5 9.7 39.7 C 9.6 38.9 9.5 38.2 9.5 37.6 C 9.5 37 9.6 36.3 9.7 35.5 C 9.8 34.7 10.1 34 10.5 33.4 C 10.9 32.8 11.4 32.2 12.1 31.8 C 12.8 31.4 13.7 31.1 14.8 31.1 L 25 31.1 C 26.1 31.1 27 31.3 27.7 31.8 C 28.4 32.2 29 32.8 29.3 33.4 C 29.7 34 30 34.8 30.1 35.5 C 30.2 36.3 30.3 37 30.3 37.6 C 30.3 38.2 30.3 39 30.1 39.7 Z M 104.3 45.8 C 105 46.9 105.8 47.7 106.8 48.4 C 107.8 49.1 109 49.5 110.3 49.6 L 115.5 49.6 C 116.9 49.6 118.1 49.2 119.2 48.5 C 120.3 47.8 121.2 46.9 122 45.7 C 122.8 44.6 123.3 43.3 123.7 41.9 C 124.1 40.5 124.3 39.2 124.3 37.8 L 124.3 28.7 C 124.3 28 124.1 27.4 123.6 26.9 C 123.2 26.4 122.6 26.1 122 26.1 C 121.4 26.1 120.8 26.4 120.4 26.9 C 120 27.4 119.7 28 119.7 28.7 L 119.7 38 C 119.7 38.6 119.6 39.3 119.5 40.1 C 119.4 40.9 119.1 41.6 118.7 42.2 C 118.3 42.8 117.8 43.4 117 43.8 C 116.3 44.2 115.4 44.5 114.3 44.5 L 111.8 44.5 C 110.7 44.5 109.8 44.3 109.1 43.8 C 108.4 43.4 107.9 42.8 107.5 42.2 C 107.1 41.6 106.8 40.9 106.7 40.1 C 106.6 39.3 106.5 38.6 106.5 38 L 106.5 38 C 106.5 38 106.5 37.9 106.5 37.9 C 106.5 36.5 106.3 35.2 105.9 33.8 C 105.5 32.4 104.9 31.2 104.2 30 C 103.4 28.9 102.5 28 101.4 27.2 C 100.3 26.5 99.1 26.1 97.7 26.1 L 79 26.1 C 78.4 26.1 77.8 26.4 77.4 26.9 C 77 27.4 76.7 28 76.7 28.7 C 76.7 29.4 76.9 30 77.4 30.5 C 77.8 31 78.4 31.3 79 31.3 L 96.7 31.3 C 97.8 31.3 98.7 31.5 99.4 32 C 100.1 32.4 100.6 33 101 33.6 C 101.4 34.2 101.7 35 101.8 35.7 C 101.9 36.5 102 37.2 102 37.8 C 102 37.8 102 37.9 102 37.9 L 102 37.9 C 102 38.3 102 38.7 101.9 39 C 101.9 39.3 101.8 39.6 101.8 39.9 C 101.7 40.7 101.4 41.4 101 42 C 100.6 42.6 100.1 43.2 99.4 43.6 C 98.7 44 97.8 44.3 96.7 44.3 L 79 44.3 C 78.4 44.3 77.8 44.6 77.4 45.1 C 77 45.6 76.7 46.2 76.7 46.9 C 76.7 47.6 76.9 48.2 77.4 48.7 C 77.8 49.2 78.4 49.4 79 49.4 L 98.2 49.4 C 99.5 49.4 100.7 49 101.7 48.3 C 102.7 47.8 103.5 46.9 104.3 45.8 Z M 45.8 24.7 L 73.1 24.7 C 73.5 24.7 73.8 24.6 74.1 24.3 C 74.4 24.1 74.5 23.8 74.5 23.4 C 74.5 23.1 74.4 22.8 74.1 22.5 C 73.8 22.3 73.5 22.1 73.1 22.1 L 45.8 22.1 C 45.4 22.1 45.1 22.2 44.8 22.5 C 44.5 22.7 44.4 23 44.4 23.4 C 44.4 23.7 44.5 24 44.8 24.3 C 45.1 24.6 45.4 24.7 45.8 24.7 Z M 74.2 37.4 C 73.6 36.8 72.9 36.2 72.2 35.9 C 71.4 35.5 70.6 35.3 69.7 35.3 L 49.6 35.3 C 49.1 35.3 48.7 35.1 48.3 34.7 C 47.9 34.3 47.8 33.8 47.8 33.3 C 47.8 32.7 48 32.3 48.3 31.9 C 48.7 31.5 49.1 31.3 49.6 31.3 L 72.3 31.3 C 72.9 31.3 73.5 31.1 73.9 30.6 C 74.3 30.1 74.6 29.5 74.6 28.8 C 74.6 28.1 74.4 27.5 73.9 27 C 73.5 26.5 72.9 26.2 72.3 26.2 L 49.7 26.2 C 48.8 26.2 48 26.4 47.2 26.8 C 46.4 27.2 45.8 27.7 45.2 28.3 C 44.6 28.9 44.2 29.7 43.8 30.6 C 43.5 31.5 43.3 32.4 43.3 33.4 C 43.3 34.4 43.5 35.3 43.8 36.2 C 44.1 37.1 44.6 37.8 45.2 38.5 C 45.8 39.1 46.4 39.7 47.2 40 C 48 40.4 48.8 40.6 49.7 40.6 L 69.9 40.6 C 70.4 40.6 70.8 40.8 71.1 41.2 C 71.5 41.6 71.6 42.1 71.6 42.6 C 71.6 43.1 71.4 43.6 71.1 44 C 70.7 44.4 70.3 44.6 69.9 44.6 C 69.9 44.6 51.2 44.6 44.5 44.6 L 44.5 44.7 C 43.3 44.7 42.9 44.7 42.9 44.7 C 42.4 44.7 42 44.5 41.6 44.1 C 41.2 43.5 41 43 41 42.5 L 41 28.8 C 41 28.1 40.8 27.5 40.3 27 C 39.8 26.5 39.3 26.2 38.7 26.2 C 38.1 26.2 37.5 26.5 37.1 27 C 36.7 27.5 36.4 28.1 36.4 28.8 L 36.4 42.5 C 36.4 43.5 36.6 44.4 36.9 45.3 C 37.3 46.2 37.7 46.9 38.3 47.6 C 38.9 48.2 39.6 48.8 40.4 49.1 C 41.2 49.5 42 49.7 42.9 49.7 C 42.9 49.7 44.7 49.7 51 49.7 L 51 49.6 L 69.5 49.6 C 70.4 49.6 71.2 49.4 72 49.1 C 72.8 48.7 73.5 48.2 74 47.6 C 74.6 47 75 46.2 75.4 45.3 C 75.7 44.4 75.9 43.5 75.9 42.5 C 75.9 41.5 75.7 40.6 75.4 39.7 C 75.2 38.8 74.8 38 74.2 37.4 Z M 122.4 53.2 L 104.9 53.2 C 104.3 53.2 103.7 53.4 103.3 53.8 C 102.9 54.2 102.6 54.7 102.6 55.2 C 102.6 55.8 102.8 56.2 103.3 56.6 C 103.7 57 104.3 57.2 104.9 57.2 L 122.4 57.2 C 123 57.2 123.6 57 124 56.6 C 124.4 56.2 124.7 55.7 124.7 55.2 C 124.7 54.6 124.5 54.2 124 53.8 C 123.5 53.4 123 53.2 122.4 53.2 Z"
        fill="#ffffff"/>
</svg>
